<svg xmlns="http://www.w3.org/2000/svg" viewBox="0 0 48 48">
  <defs>
    <!-- Blade gradient - silver shine -->
    <linearGradient id="blade" x1="0%" y1="0%" x2="100%" y2="100%">
      <stop offset="0%" stop-color="#fafafa"/>
      <stop offset="15%" stop-color="#e5e5e5"/>
      <stop offset="35%" stop-color="#d4d4d4"/>
      <stop offset="50%" stop-color="#f5f5f5"/>
      <stop offset="65%" stop-color="#a3a3a3"/>
      <stop offset="85%" stop-color="#71717a"/>
      <stop offset="100%" stop-color="#52525b"/>
    </linearGradient>
    <!-- Crossguard gradient -->
    <linearGradient id="guard" x1="0%" y1="0%" x2="0%" y2="100%">
      <stop offset="0%" stop-color="#e5e5e5"/>
      <stop offset="25%" stop-color="#d4d4d4"/>
      <stop offset="50%" stop-color="#a3a3a3"/>
      <stop offset="100%" stop-color="#525252"/>
    </linearGradient>
    <!-- Handle gradient -->
    <linearGradient id="handle" x1="0%" y1="0%" x2="100%" y2="0%">
      <stop offset="0%" stop-color="#52525b"/>
      <stop offset="50%" stop-color="#3f3f46"/>
      <stop offset="100%" stop-color="#27272a"/>
    </linearGradient>
    <!-- Pommel gradient -->
    <radialGradient id="pommel" cx="40%" cy="30%" r="70%">
      <stop offset="0%" stop-color="#f5f5f5"/>
      <stop offset="40%" stop-color="#a3a3a3"/>
      <stop offset="100%" stop-color="#525252"/>
    </radialGradient>
    <!-- Edge highlight -->
    <linearGradient id="edge" x1="0%" y1="0%" x2="100%" y2="0%">
      <stop offset="0%" stop-color="#ffffff" stop-opacity="0.9"/>
      <stop offset="100%" stop-color="#a3a3a3" stop-opacity="0.3"/>
    </linearGradient>
  </defs>
  
  <!-- Blade - longer and thicker -->
  <path d="M24 2L28 36H20L24 2Z" fill="url(#blade)"/>
  
  <!-- Blade fuller (groove) -->
  <path d="M24 5L24.5 30" stroke="#71717a" stroke-width="1.2" stroke-linecap="round" stroke-opacity="0.6"/>
  
  <!-- Blade edge highlight (left side) -->
  <path d="M24 2L20.5 36" stroke="url(#edge)" stroke-width="0.8" stroke-linecap="round"/>
  
  <!-- Crossguard -->
  <rect x="8" y="36" width="32" height="5" rx="1" fill="url(#guard)"/>
  
  <!-- Guard top highlight -->
  <rect x="8" y="36" width="32" height="1.5" rx="0.5" fill="#f5f5f5" fill-opacity="0.5"/>
  
  <!-- Guard side accents -->
  <rect x="8" y="36" width="2" height="5" rx="0.5" fill="#e5e5e5" fill-opacity="0.3"/>
  <rect x="38" y="36" width="2" height="5" rx="0.5" fill="#525252" fill-opacity="0.3"/>
  
  <!-- Handle -->
  <rect x="20" y="41" width="8" height="5" rx="1" fill="url(#handle)"/>
  
  <!-- Handle wrapping lines -->
  <path d="M20 42.5H28M20 44.5H28" stroke="#18181b" stroke-width="0.6" stroke-opacity="0.5"/>
  
  <!-- Pommel -->
  <ellipse cx="24" cy="47" rx="5" ry="2" fill="url(#pommel)"/>
  
  <!-- Pommel highlight -->
  <ellipse cx="22.5" cy="46.2" rx="1.5" ry="0.6" fill="#ffffff" fill-opacity="0.5"/>
</svg>
