<svg xmlns="http://www.w3.org/2000/svg" viewBox="0 0 48 48">
  <defs>
    <!-- Blade gradient - silver shine -->
    <linearGradient id="blade" x1="0%" y1="0%" x2="100%" y2="100%">
      <stop offset="0%" stop-color="#e5e5e5"/>
      <stop offset="25%" stop-color="#d4d4d4"/>
      <stop offset="50%" stop-color="#f5f5f5"/>
      <stop offset="75%" stop-color="#a3a3a3"/>
      <stop offset="100%" stop-color="#737373"/>
    </linearGradient>
    <!-- Crossguard gradient -->
    <linearGradient id="guard" x1="0%" y1="0%" x2="0%" y2="100%">
      <stop offset="0%" stop-color="#d4d4d4"/>
      <stop offset="50%" stop-color="#a3a3a3"/>
      <stop offset="100%" stop-color="#525252"/>
    </linearGradient>
    <!-- Handle gradient - dark leather look -->
    <linearGradient id="handle" x1="0%" y1="0%" x2="100%" y2="0%">
      <stop offset="0%" stop-color="#3f3f46"/>
      <stop offset="50%" stop-color="#52525b"/>
      <stop offset="100%" stop-color="#27272a"/>
    </linearGradient>
    <!-- Pommel gradient -->
    <radialGradient id="pommel" cx="50%" cy="30%" r="70%">
      <stop offset="0%" stop-color="#e5e5e5"/>
      <stop offset="100%" stop-color="#71717a"/>
    </radialGradient>
    <!-- Glow filter -->
    <filter id="glow" x="-20%" y="-20%" width="140%" height="140%">
      <feGaussianBlur stdDeviation="1" result="blur"/>
      <feMerge>
        <feMergeNode in="blur"/>
        <feMergeNode in="SourceGraphic"/>
      </feMerge>
    </filter>
  </defs>
  
  <!-- Blade -->
  <path d="M24 3L27 33H21L24 3Z" fill="url(#blade)" filter="url(#glow)"/>
  
  <!-- Blade center line (fuller) -->
  <path d="M24 6L24.5 28" stroke="#a1a1aa" stroke-width="1" stroke-linecap="round"/>
  
  <!-- Crossguard -->
  <rect x="10" y="33" width="28" height="5" rx="1.5" fill="url(#guard)"/>
  <rect x="10" y="33" width="28" height="1.5" rx="0.75" fill="#e5e5e5" fill-opacity="0.4"/>
  
  <!-- Guard ornaments -->
  <circle cx="12" cy="35.5" r="1.5" fill="#e5e5e5" fill-opacity="0.6"/>
  <circle cx="36" cy="35.5" r="1.5" fill="#e5e5e5" fill-opacity="0.6"/>
  
  <!-- Handle wrap -->
  <rect x="21" y="38" width="6" height="6" rx="1" fill="url(#handle)"/>
  <path d="M21 39.5H27M21 42H27M21 44.5H27" stroke="#27272a" stroke-width="0.5" stroke-opacity="0.5"/>
  
  <!-- Pommel -->
  <ellipse cx="24" cy="45" rx="4" ry="2.5" fill="url(#pommel)"/>
  <ellipse cx="23" cy="44" rx="1" ry="0.5" fill="#ffffff" fill-opacity="0.4"/>
</svg>
